REM DIRINDEX 1\5,1\2\6,1\2\7,1\3\8,1\3\9,1\4\10,1\4\11,1\4\12
REM DIRNAME folder01,folder02,folder03,folder04,folder05,folder06,folder07,folder08,folder09,folder10,folder11,folder12
TITLE ""
FILE "EJE_DB3000_5th_4B_34.mp3" MP3
  TRACK 01 AUDIO
    TITLE "0:"
    INDEX 01 00:00:00
  TRACK 02 AUDIO
    TITLE "10:cjc026_09492"
    INDEX 01 00:00:05
  TRACK 03 AUDIO
    TITLE "0:"
    INDEX 01 00:01:03
  TRACK 04 AUDIO
    TITLE "11:cjc026_09493"
    INDEX 01 00:01:32
  TRACK 05 AUDIO
    TITLE "0:"
    INDEX 01 00:02:38
  TRACK 06 AUDIO
    TITLE "12:cjc026_09494"
    INDEX 01 00:02:65
  TRACK 07 AUDIO
    TITLE "0:"
    INDEX 01 00:03:63
  TRACK 08 AUDIO
    TITLE "10:cjc026_09495"
    INDEX 01 00:04:15
  TRACK 09 AUDIO
    TITLE "0:"
    INDEX 01 00:05:09
  TRACK 10 AUDIO
    TITLE "11:cjc026_09496"
    INDEX 01 00:05:34
  TRACK 11 AUDIO
    TITLE "0:"
    INDEX 01 00:06:41
  TRACK 12 AUDIO
    TITLE "12:cjc026_09497"
    INDEX 01 00:06:69
  TRACK 13 AUDIO
    TITLE "0:"
    INDEX 01 00:07:62
  TRACK 14 AUDIO
    TITLE "10:cjc026_09498"
    INDEX 01 00:08:13
  TRACK 15 AUDIO
    TITLE "0:"
    INDEX 01 00:09:00
  TRACK 16 AUDIO
    TITLE "11:cjc026_09499"
    INDEX 01 00:09:30
  TRACK 17 AUDIO
    TITLE "0:"
    INDEX 01 00:10:25
  TRACK 18 AUDIO
    TITLE "12:cjc026_09500"
    INDEX 01 00:10:51
  TRACK 19 AUDIO
    TITLE "0:"
    INDEX 01 00:11:40
  TRACK 20 AUDIO
    TITLE "10:cjc026_09501"
    INDEX 01 00:11:66
  TRACK 21 AUDIO
    TITLE "0:"
    INDEX 01 00:12:54
  TRACK 22 AUDIO
    TITLE "11:cjc026_09502"
    INDEX 01 00:13:04
  TRACK 23 AUDIO
    TITLE "0:"
    INDEX 01 00:14:09
  TRACK 24 AUDIO
    TITLE "12:cjc026_09503"
    INDEX 01 00:14:37
  TRACK 25 AUDIO
    TITLE "0:"
    INDEX 01 00:15:23
  TRACK 26 AUDIO
    TITLE "10:cjc026_09504"
    INDEX 01 00:15:48
  TRACK 27 AUDIO
    TITLE "0:"
    INDEX 01 00:16:36
  TRACK 28 AUDIO
    TITLE "11:cjc026_09505"
    INDEX 01 00:16:63
  TRACK 29 AUDIO
    TITLE "0:"
    INDEX 01 00:17:59
  TRACK 30 AUDIO
    TITLE "12:cjc026_09506"
    INDEX 01 00:18:11
  TRACK 31 AUDIO
    TITLE "0:"
    INDEX 01 00:18:74
  TRACK 32 AUDIO
    TITLE "10:cjc026_09507"
    INDEX 01 00:19:24
  TRACK 33 AUDIO
    TITLE "0:"
    INDEX 01 00:20:30
  TRACK 34 AUDIO
    TITLE "11:cjc026_09508"
    INDEX 01 00:20:57
  TRACK 35 AUDIO
    TITLE "0:"
    INDEX 01 00:21:64
  TRACK 36 AUDIO
    TITLE "12:cjc026_09509"
    INDEX 01 00:22:15
  TRACK 37 AUDIO
    TITLE "0:"
    INDEX 01 00:23:18
  TRACK 38 AUDIO
    TITLE "10:cjc026_09510"
    INDEX 01 00:23:44
  TRACK 39 AUDIO
    TITLE "0:"
    INDEX 01 00:24:31
  TRACK 40 AUDIO
    TITLE "11:cjc026_09511"
    INDEX 01 00:24:59
  TRACK 41 AUDIO
    TITLE "0:"
    INDEX 01 00:25:54
  TRACK 42 AUDIO
    TITLE "12:cjc026_09512"
    INDEX 01 00:26:05
  TRACK 43 AUDIO
    TITLE "0:"
    INDEX 01 00:26:67
  TRACK 44 AUDIO
    TITLE "10:cjc026_09513"
    INDEX 01 00:27:20
  TRACK 45 AUDIO
    TITLE "0:"
    INDEX 01 00:28:10
  TRACK 46 AUDIO
    TITLE "11:cjc026_09514"
    INDEX 01 00:28:35
  TRACK 47 AUDIO
    TITLE "0:"
    INDEX 01 00:29:40
  TRACK 48 AUDIO
    TITLE "12:cjc026_09515"
    INDEX 01 00:29:68
  TRACK 49 AUDIO
    TITLE "0:"
    INDEX 01 00:30:55
  TRACK 50 AUDIO
    TITLE "10:cjc026_09516"
    INDEX 01 00:31:08
  TRACK 51 AUDIO
    TITLE "0:"
    INDEX 01 00:32:01
  TRACK 52 AUDIO
    TITLE "11:cjc026_09517"
    INDEX 01 00:32:27
  TRACK 53 AUDIO
    TITLE "0:"
    INDEX 01 00:33:21
  TRACK 54 AUDIO
    TITLE "12:cjc026_09518"
    INDEX 01 00:33:48
  TRACK 55 AUDIO
    TITLE "0:"
    INDEX 01 00:34:42
  TRACK 56 AUDIO
    TITLE "10:cjc026_09519"
    INDEX 01 00:34:67
  TRACK 57 AUDIO
    TITLE "0:"
    INDEX 01 00:35:51
  TRACK 58 AUDIO
    TITLE "11:cjc026_09520"
    INDEX 01 00:36:01
  TRACK 59 AUDIO
    TITLE "0:"
    INDEX 01 00:36:58
  TRACK 60 AUDIO
    TITLE "12:cjc026_09521"
    INDEX 01 00:37:07
  TRACK 61 AUDIO
    TITLE "0:"
    INDEX 01 00:37:67
  TRACK 62 AUDIO
    TITLE "10:cjc026_09522"
    INDEX 01 00:38:16
  TRACK 63 AUDIO
    TITLE "0:"
    INDEX 01 00:39:11
  TRACK 64 AUDIO
    TITLE "11:cjc026_09523"
    INDEX 01 00:39:39
  TRACK 65 AUDIO
    TITLE "0:"
    INDEX 01 00:40:50
  TRACK 66 AUDIO
    TITLE "12:cjc026_09524"
    INDEX 01 00:41:02
  TRACK 67 AUDIO
    TITLE "0:"
    INDEX 01 00:41:71
  TRACK 68 AUDIO
    TITLE "10:cjc026_09525"
    INDEX 01 00:42:23
  TRACK 69 AUDIO
    TITLE "0:"
    INDEX 01 00:43:11
  TRACK 70 AUDIO
    TITLE "11:cjc026_09526"
    INDEX 01 00:43:40
  TRACK 71 AUDIO
    TITLE "0:"
    INDEX 01 00:44:40
  TRACK 72 AUDIO
    TITLE "12:cjc026_09527"
    INDEX 01 00:44:63
  TRACK 73 AUDIO
    TITLE "0:"
    INDEX 01 00:45:55
  TRACK 74 AUDIO
    TITLE "10:cjc026_09528"
    INDEX 01 00:46:06
  TRACK 75 AUDIO
    TITLE "0:"
    INDEX 01 00:46:72
  TRACK 76 AUDIO
    TITLE "11:cjc026_09529"
    INDEX 01 00:47:25
  TRACK 77 AUDIO
    TITLE "0:"
    INDEX 01 00:48:32
  TRACK 78 AUDIO
    TITLE "12:cjc026_09530"
    INDEX 01 00:48:57
  TRACK 79 AUDIO
    TITLE "0:"
    INDEX 01 00:49:49
